<?xml version="1.0" encoding="utf-8"?>
<!-- Generator: Adobe Illustrator 16.2.1, SVG Export Plug-In . SVG Version: 6.00 Build 0)  -->
<!DOCTYPE svg PUBLIC "-//W3C//DTD SVG 1.1//EN" "http://www.w3.org/Graphics/SVG/1.1/DTD/svg11.dtd">
<svg version="1.1" id="Layer_1" xmlns="http://www.w3.org/2000/svg" xmlns:xlink="http://www.w3.org/1999/xlink" x="0px" y="0px"
	 width="20px" height="20px" viewBox="0 0 20 20" enable-background="new 0 0 20 20" xml:space="preserve">
<g>
	<path fill="#FC8074" d="M17.508,16.912c-0.866,0-1.568,0.691-1.568,1.543c0,0.854,0.702,1.544,1.568,1.544s1.568-0.69,1.568-1.544
		C19.076,17.604,18.374,16.912,17.508,16.912z M5.172,16.912c-0.866,0-1.567,0.691-1.567,1.543C3.604,19.31,4.306,20,5.172,20
		s1.568-0.69,1.568-1.544C6.74,17.604,6.038,16.912,5.172,16.912z M16.422,10.747L20,7.224v-4.82H4.64L3.745,0H1.159
		C0.52,0,0,0.511,0,1.142s0.52,1.142,1.159,1.142h0.966l3.121,8.388l-1.661,5.074h15.059c0.64,0,1.159-0.511,1.159-1.142
		c0-0.631-0.52-1.141-1.159-1.141H6.769l0.889-2.715H16.422z"/>
</g>
</svg>
