<?xml version="1.0" encoding="utf-8"?>
<!-- Generator: Adobe Illustrator 16.2.1, SVG Export Plug-In . SVG Version: 6.00 Build 0)  -->
<!DOCTYPE svg PUBLIC "-//W3C//DTD SVG 1.1//EN" "http://www.w3.org/Graphics/SVG/1.1/DTD/svg11.dtd">
<svg version="1.1" id="Layer_1" xmlns="http://www.w3.org/2000/svg" xmlns:xlink="http://www.w3.org/1999/xlink" x="0px" y="0px"
	 width="216px" height="108px" viewBox="0 0 216 108" enable-background="new 0 0 216 108" xml:space="preserve">
<g>
	<rect fill-rule="evenodd" clip-rule="evenodd" fill="#231F20" width="216" height="108"/>
	<polygon fill="#D1D1D1" points="124.592,64.977 137.937,64.977 137.937,61.055 128.741,61.055 128.741,43.761 124.592,43.761 
		124.592,64.977 	"/>
	<path fill="#D1D1D1" d="M104.483,64.977h4.029l1.268-3.669h7.069l1.217,3.669h4.131l-6.918-21.216h-3.777L104.483,64.977
		L104.483,64.977z M113.327,48.991h0.051l2.433,8.709h-4.991L113.327,48.991L113.327,48.991z"/>
	<polygon fill="#D1D1D1" points="95.215,64.977 99.364,64.977 99.364,47.684 105.019,47.684 105.019,43.761 89.56,43.761 
		89.56,47.684 95.215,47.684 95.215,64.977 	"/>
	<path fill="#D1D1D1" d="M76.902,47.634h3.224c0.484,0,0.948,0.029,1.383,0.105c0.437,0.075,0.824,0.22,1.163,0.426
		c0.339,0.207,0.606,0.505,0.802,0.895c0.196,0.391,0.299,0.894,0.299,1.518s-0.103,1.128-0.299,1.519
		c-0.195,0.385-0.462,0.688-0.802,0.895c-0.339,0.207-0.727,0.346-1.163,0.421c-0.436,0.076-0.898,0.111-1.383,0.111h-3.224V47.634
		L76.902,47.634z M83.951,65.026h4.448l-4.12-8.688c0.495-0.203,0.933-0.454,1.312-0.755c0.512-0.407,0.929-0.877,1.255-1.409
		c0.326-0.532,0.562-1.106,0.713-1.716c0.152-0.61,0.229-1.238,0.229-1.88s-0.077-1.271-0.229-1.881
		c-0.152-0.613-0.389-1.183-0.713-1.715c-0.327-0.536-0.745-1.004-1.255-1.408s-1.127-0.72-1.845-0.949
		c-0.718-0.229-1.546-0.349-2.484-0.349h-8.509v20.682h4.149v-8.077h3.187L83.951,65.026L83.951,65.026z"/>
	<path fill="#D1D1D1" d="M40.641,47.386h3.224c0.484-0.005,0.947,0.034,1.383,0.114c0.436,0.084,0.824,0.237,1.163,0.461
		c0.339,0.222,0.607,0.544,0.801,0.966c0.198,0.42,0.295,0.965,0.299,1.639c-0.004,0.673-0.101,1.217-0.299,1.639
		c-0.194,0.416-0.462,0.743-0.801,0.966c-0.339,0.223-0.727,0.376-1.163,0.456c-0.436,0.084-0.898,0.124-1.383,0.119h-3.224V47.386
		L40.641,47.386z M36.493,64.977h4.148V57.37h4.36c0.938-0.005,1.766-0.129,2.484-0.376s1.334-0.589,1.846-1.024
		c0.511-0.441,0.929-0.947,1.255-1.521c0.326-0.574,0.563-1.194,0.713-1.852c0.154-0.659,0.229-1.338,0.229-2.03
		c0-0.694-0.075-1.372-0.229-2.031c-0.15-0.664-0.387-1.278-0.713-1.852c-0.327-0.58-0.745-1.084-1.255-1.521
		c-0.511-0.436-1.128-0.777-1.846-1.025c-0.718-0.248-1.545-0.371-2.484-0.376h-8.508V64.977L36.493,64.977z"/>
	<path fill="#1FA8D9" d="M172.325,37.088c2.381,0,4.312,1.93,4.312,4.311c0,2.382-1.931,4.312-4.312,4.312s-4.312-1.93-4.312-4.312
		C168.013,39.019,169.944,37.088,172.325,37.088L172.325,37.088z M176.986,60.174c0.666,0.504,1.613,0.371,2.117-0.295
		c0.502-0.666,0.369-1.613-0.296-2.116l-4.581-3.413l-0.962-5.145c-0.085-0.366-0.297-0.669-0.577-0.875l-7.707-6.054v-9.787h-0.791
		v42.972h0.791v-2.656l4.916-5.193c0.754-0.645,0.895-1.773,0.299-2.586l-0.004,0.001l-5.211-7.116v-0.115l5.586-6.857l1.16,4.951
		l0.126,0.533l0.437,0.33L176.986,60.174L176.986,60.174z M166.16,66.006l-0.559,0.592l-0.625,0.646v-1.424v-1.424l0.646,0.864
		L166.16,66.006L166.16,66.006z"/>
	<path fill="#D1D1D1" d="M61.298,43.645c2.12,0,4.046,0.866,5.441,2.26S69,49.226,69,51.346v6.262c0,2.12-0.866,4.046-2.261,5.441
		c-1.395,1.395-3.321,2.26-5.441,2.26c-2.12,0-4.045-0.865-5.44-2.26c-1.395-1.396-2.261-3.321-2.261-5.441v-6.262
		c0-2.12,0.866-4.046,2.261-5.441C57.252,44.511,59.178,43.645,61.298,43.645L61.298,43.645z M63.885,48.759
		c-0.666-0.665-1.581-1.078-2.587-1.078c-1.005,0-1.922,0.413-2.587,1.078c-0.665,0.666-1.078,1.582-1.078,2.587v6.262
		c0,1.006,0.413,1.922,1.078,2.587s1.582,1.079,2.587,1.079c1.006,0,1.922-0.414,2.587-1.079s1.079-1.581,1.079-2.587v-6.262
		C64.964,50.34,64.551,49.424,63.885,48.759L63.885,48.759z"/>
	<path fill-rule="evenodd" clip-rule="evenodd" fill="#D1D1D1" d="M153.99,52.357c0,0,0.886-0.877,0.886-1.891
		s-0.523-2.006-2.118-2.006c-1.594,0-2.311,0.85-2.311,2.551c-1.168,0-5.773,0-5.773,0s-0.921-7.864,7.971-7.864
		s8.184,6.979,8.184,7.333c0,0.354,0.141,2.55-2.87,5.101c-1.746,1.479-3.19,2.557-4.817,4.122h7.908v5.372h-16.516v-3.72
		L153.99,52.357L153.99,52.357z"/>
</g>
</svg>
