<?xml version="1.0" encoding="utf-8"?>
<!-- Generator: Adobe Illustrator 16.2.1, SVG Export Plug-In . SVG Version: 6.00 Build 0)  -->
<!DOCTYPE svg PUBLIC "-//W3C//DTD SVG 1.1//EN" "http://www.w3.org/Graphics/SVG/1.1/DTD/svg11.dtd">
<svg version="1.1" id="Layer_1" xmlns="http://www.w3.org/2000/svg" xmlns:xlink="http://www.w3.org/1999/xlink" x="0px" y="0px"
	 width="285px" height="71px" viewBox="0 0 285 71" enable-background="new 0 0 285 71" xml:space="preserve">
<g>
	<g opacity="0.5">
		<path fill="#FFFFFF" d="M157.328,26.854c-1.579,1.301-0.836,3.252-0.836,3.252c1.023,0.558,2.417,0.187,1.674-1.394
			c-0.744-1.581,1.114-1.58,1.394-2.603C159.838,25.088,158.909,25.553,157.328,26.854z"/>
		<path fill="#FFFFFF" d="M158.909,43.397c0.743,1.022,1.022,0,1.487-1.208c0.464-1.209-0.65-3.811-1.58-3.625
			s0.186,1.674,0.186,1.674C159.188,41.91,158.166,42.375,158.909,43.397z"/>
		<path fill="#FFFFFF" d="M172.85,44.885c0,0-2.137,2.23-2.045,3.996c0.094,1.766-2.23,0.93-2.695,3.717
			c-0.465,2.789,0.93,0,1.395-0.278s1.301-1.022,1.952-1.673c0.65-0.65,0.093-3.438,1.487-4.74
			C174.336,44.605,173.221,44.977,172.85,44.885z"/>
		<path fill="#FFFFFF" d="M184.188,33.639c1.208,0,1.301-4.833,0.464-6.32c-0.836-1.487-0.65,0.093-0.65,0.093
			S182.98,33.639,184.188,33.639z"/>
		<path fill="#FFFFFF" d="M134.467,53.249c1.301,0.278-0.373-1.767-0.837-2.974c-0.464-1.209,0-3.16-1.116-3.067
			c-1.114,0.093-0.371,2.881-0.371,2.881C132.143,51.111,133.166,52.97,134.467,53.249z"/>
		<path fill="#FFFFFF" d="M193.574,33.035c-1.812-8.364-5.715-9.758-5.715-9.758c-3.765-7.249-6.553-8.086-8.504-10.734
			c-1.951-2.649-4.322-5.576-7.389-5.995c-3.066-0.418-3.625-2.37-6.135-3.485c-2.509-1.115-7.109-1.673-7.109-1.673
			c-3.624-2.648-7.807-0.697-7.807-0.697c-7.527-1.394-7.667,1.534-9.758,1.812c-2.092,0.278-3.485-1.952-6.691-1.116
			c-3.207,0.837-6.832,3.346-6.832,3.346c-7.248-0.14-5.157,3.206-7.666,3.206c-2.51,0-8.086,1.673-9.342,4.322
			c-1.254,2.649-2.787,1.255-5.854,4.601s-3.764,5.715-3.764,5.715c-0.558,2.091-2.091,2.928-2.091,2.928
			c-4.461,5.158-4.183,10.595-4.183,10.595c-3.347,3.485-1.673,7.528-1.673,7.528c2.092,3.206,1.951,6.552,1.951,6.552
			c3.625,10.874,15.335,10.596,17.287,11.292c1.951,0.697,5.158,0.697,5.158,0.697c1.115,2.509,3.764,4.88,3.764,4.88
			c2.369,0,12.268,3.902,15.195,3.902s7.109-1.673,7.109-1.673c10.734,0.558,15.195-4.182,15.195-4.182
			c6.553,0.837,5.298-1.673,7.668-1.673c2.369,0,6.134-0.977,7.389-2.648c1.254-1.674,2.928-1.812,5.019-3.207
			s4.601-3.207,7.667-1.812s4.601,0.14,4.601,0.14C197.339,48.788,195.387,41.399,193.574,33.035z M159.467,5.292
			c0,0-1.301-1.672,2.045-0.929c3.346,0.744,4.554,1.581,6.691,3.067s3.346,1.022,3.811,1.022s0.279,0.744-0.836,0.836
			c-1.116,0.093-2.51,0.465-5.02-1.487s-3.996-0.744-4.461,0.372s0.094,3.253-1.208,3.253s-1.952-0.372-0.837-1.952
			C159.652,9.475,160.303,7.244,159.467,5.292z M159.096,18.955c0.743,0.558-0.93,1.673-0.93,1.673
			c-1.209,0.186-1.674,0.279-3.439,1.952s-3.717,0.837-4.554-0.465c-0.837-1.301-1.394-1.115-1.394-1.115
			c-0.93,0.558,0.65,2.044,0.65,2.044c0.65,0.465,1.673,0.65,1.673,3.439c0,2.788-4.275,5.855-4.833,2.044s-2.137-3.811-2.51-6.877
			c-0.371-3.067,2.51-9.015,6.413-10.316s9.479,0.558,8.364,1.858C157.422,14.494,158.352,18.397,159.096,18.955z M140.973,6.408
			c1.672-1.022,2.694-4.647,8.736-3.439c0,0,2.416,0.558,1.765,2.788c0,0-1.115,1.859,0.466,1.859c1.579,0,2.88-2.045,1.486-3.811
			c0,0-1.022-1.394,1.115-1.301c2.138,0.093,3.811,2.138,3.811,5.112c0,0,0.744,2.695-2.416,1.394c0,0-3.439-1.115-5.484,0.186
			s-3.531,1.301-5.297,0.836c0,0-0.836,0.836,0.465,1.115c0,0,2.137,0.93,0.93,1.208c-1.209,0.279-2.882,0.651-2.324,3.811
			c0,0-1.115,1.115-2.044-1.115c0,0-0.093-1.301-0.651-1.766c-0.557-0.464-1.301,0.558-0.557,2.231
			c0.742,1.672,1.394,1.859,1.301,3.717c-0.093,1.859,0.279,4.461,1.486,6.413c1.209,1.952,0.651,3.16,1.115,3.903
			c0.465,0.744,3.254,2.509,2.695,4.74c-0.558,2.23-1.58,4.368-4.461,4.368s-3.811,1.487-5.669,1.952s-6.506-0.744-6.413-8.829
			c0,0,0.187-3.067-2.23-7.807c0,0-0.371-3.067,0.744-3.718c0,0,0.557-3.067-1.209-3.346c0,0-0.65,0.743-0.186,1.394
			c0.465,0.65,0.279,1.487-0.371,2.044s-0.187,2.138-0.559,2.138c0,0-1.58,0.279-0.558-3.438c0,0-0.558-3.532,1.209-4.275
			c1.766-0.743,3.624-1.859,5.575-5.948c0,0,3.439-3.16,4.834-0.372c0,0,0.743,1.581-0.837,3.903
			c-1.58,2.323-1.395,2.788-1.302,4.275c0,0-2.602,2.23-2.695,3.438c-0.092,1.208-0.092,3.811,1.209,5.019
			c0,0,0.186,4.647,1.301,6.785c1.115,2.138,1.487,3.252,3.346,3.16c0,0,0.65-0.372-1.486-1.952c0,0-1.302-0.65-1.766-7.993
			c0,0-2.695-3.531,0.65-6.413c0,0,1.766-1.766,1.58-3.625c0,0,0.278-2.138,1.672-2.881C139.949,12.17,139.299,7.43,140.973,6.408z
			 M105.748,34.29c0,0-2.51,3.717-2.881,0.372c0,0,2.788-4.089,4.832-4.089c2.045,0,4.276,3.718,3.161,7.622
			c0,0-0.837,2.602,1.115-0.187c0,0,1.022-2.323,0.558-3.531c0,0,1.021-0.465,2.974,2.788s3.718,3.811,5.669,4.09
			c1.952,0.278,3.346,2.787,3.346,3.717s-2.23,0.186-4.275-0.65c-2.043-0.836-3.531-3.066-8.363-1.951
			c-4.833,1.115-7.807-5.02-4.461-7.714C107.422,34.754,107.328,32.988,105.748,34.29z M120.34,39.309
			c-3.718-2.045-5.948-5.019-3.439-5.205c2.51-0.186,1.116,1.301,2.882,1.395c1.766,0.093-1.022-1.766-1.581-3.346
			c-0.557-1.58-0.557-5.111-0.557-5.669s-1.115-1.022-1.022,1.394s0.187,6.691-3.81,5.019c0,0-2.51-0.744-1.674-4.926
			c0,0-0.278-1.115-1.022-0.093c0,0,0.093,1.208-1.952,0.465c0,0-3.158,0.186-3.902,2.509c0,0-1.487,1.672-0.837-0.372
			c0,0,1.208-3.717,2.788-5.019s3.531-3.067,4.74-4.926c0,0,0.93-0.929,2.137,0.465c1.209,1.394,2.324,1.672,1.488,4.926
			c-0.838,3.252-0.838,4.461,0.092,3.16c0.93-1.301,1.488-6.041,4.275-6.227c2.789-0.186,3.16,0.558,2.23,2.975
			c-0.93,2.416,0,3.067,0.837,1.022c0.837-2.044,1.115-5.019,4.461-3.16c0,0,1.302,1.859-0.372,3.532
			c-1.672,1.673-2.51,6.227-2.51,8.458S124.058,41.353,120.34,39.309z M119.875,20.07c0,0,0.558,1.673-1.672,0.93
			c0,0-0.744,1.022-1.488,1.487c0,0-1.672-2.138-2.974-3.16c0,0-1.673-0.279-1.302-1.022c0,0,2.045-3.625,4.927-3.625
			c0,0,0.835-0.186,0.65,2.602C117.83,20.07,119.225,18.211,119.875,20.07z M127.123,28.713c1.209-1.487,2.139-0.465,1.953,1.022
			c-0.186,1.487,0.278,4.089,1.486,7.621c1.209,3.532-0.371,4.275-0.371,4.275c-0.837,2.509,1.022,0.929,1.022,0.929
			c0.278-1.115,1.579-2.23,1.579-2.23c2.416,0.559,0.186,3.254,0.186,3.254c-4.274,2.23-7.155,0-7.155,0
			C122.662,38.193,127.123,28.713,127.123,28.713z M128.053,6.408c1.488,0.186,2.789-0.836,2.789-0.836
			c1.672-1.766,5.576-2.324,7.621-1.394c2.044,0.929,0.743,2.417,0.743,2.417c-4.461-1.581-6.319,0.278-7.249,1.208
			c-0.93,0.929-0.279,3.346-3.904,4.554c-3.623,1.208-3.252,3.718-2.881,5.391c0.372,1.673-1.115,6.599-3.346,2.602
			c-2.23-3.996-2.322-1.858-2.23-4.925c0.094-3.067,3.811-2.138,3.811-2.138c2.975-0.186,2.975-2.323,3.067-4.089
			C126.566,7.43,128.053,6.408,128.053,6.408z M108.165,16.91c0.093-0.279-0.279-0.651,1.579-0.929
			c1.859-0.279,2.324-1.859,2.324-1.859c3.16-4.74,9.387-4.368,9.387-4.368c0.558-0.93,2.137-2.323,2.137-2.323
			c1.768-1.208,2.045-0.372,2.045-0.372c-0.65,0.186-0.743,1.487-0.743,1.487c0.372,3.067-1.858,2.974-1.858,2.974
			c-2.603-0.093-5.019,1.301-5.019,1.301c-8.086,2.509-5.763,5.205-7.899,6.134C107.979,19.884,108.165,16.91,108.165,16.91z
			 M101.752,26.668c0,0,1.859-1.394,1.859-4.461c0,0,1.301-2.881,2.788-3.625c0,0,0,2.324,2.138,1.859c0,0,0.186,1.022-1.487,2.044
			s-3.347,2.509-3.812,4.182c0,0-1.207,1.022-1.765,3.532c0,0-1.116,1.673-4.09,2.509C97.384,32.709,98.5,28.899,101.752,26.668z
			 M100.545,33.081c2.137-0.558,1.3,0.558,1.3,0.558c-0.836,0.279-1.858,2.138-1.858,2.138c-2.881,1.672-1.395,4.739-1.395,4.739
			c-0.092,4.183-2.695,2.23-2.695,2.23C94.41,35.684,100.545,33.081,100.545,33.081z M97.756,48.045c0,0-0.186-1.488-1.115-2.139
			c0,0-0.743-1.486,1.673-1.486c0,0,2.695-0.838,2.603-2.603c0,0-0.93-1.487-0.744-2.694c0,0-0.186-2.324,1.766-2.604
			c1.952-0.278,2.695,1.859,2.603,3.531c-0.093,1.674,2.417,3.16,3.997,3.16c1.579,0-0.373,1.674-2.324,2.604
			c-1.951,0.929-2.416,2.322-7.062,1.115c0,0-0.559,3.159,6.877,0.929c0,0,1.859-0.65,2.602-1.673c0,0-0.277,3.252,0.838,4.832
			c1.114,1.58-2.045,6.041-9.48,2.324C99.986,53.342,97.198,51.855,97.756,48.045z M111.789,57.432
			c-0.093,3.252-7.156,0.929-9.479-1.58c0,0,3.066,1.58,6.783-0.187C109.094,55.665,111.883,54.178,111.789,57.432z M118.667,57.803
			c-0.372,1.395-1.022,1.859-2.974,1.859c-1.952,0-3.16-0.188-2.324-2.789c0,0,1.859,0.465,3.531-0.186
			C116.9,56.688,119.039,56.408,118.667,57.803z M111.604,54.55c-1.209-1.394-0.371-4.368-0.371-4.368
			c-2.695-4.182,0.278-6.227,0.278-6.227c5.298-0.93,5.204,1.486,9.294,2.324c4.089,0.836,2.416,1.672,2.416,1.672
			c-2.881,1.487-6.97,1.115-8.363,0.744c-1.395-0.373-2.975-0.279-1.303,0.743c1.674,1.022,5.67,0.837,5.67,0.837
			c1.951-0.744,1.766,0.929,1.766,0.929c-1.208,0.372-1.208,2.23-1.208,2.23C118.295,56.688,111.604,54.55,111.604,54.55z
			 M173.779,56.664c-1.533,2.648-3.834,4.601-5.995,4.67c-2.16,0.07,0.767-1.324-1.464-2.718c0,0-0.976-0.906-0.976,0.349
			c0,0,1.185,1.254-0.14,2.16s-2.16,2.301-9.201,2.37c0,0-2.996-0.069-7.736-5.228c0,0-1.255-2.23-2.021-2.719
			c0,0-0.697,0.14-0.279,1.046c0,0,0.628,1.673-0.418,1.882c-1.045,0.209-5.994,0.488-7.318,3.694c0,0-0.418,1.185,1.812-0.209
			s2.648-2.23,5.367-2.161c2.719,0.07,2.857,1.255,4.879,2.719s4.67,2.648,0.767,3.625c-3.903,0.976-6.343-0.419-10.246,1.603
			s-5.158,1.255-5.577,0.697c-0.418-0.558-0.139-1.673,1.743-1.812s5.437-0.696,5.507-1.952c0.069-1.254-0.349-2.23-0.768-1.812
			c-0.418,0.419,0,2.092-1.463,2.021c-1.464-0.069-4.949-0.209-6.622,0.837s-3.974,1.464-6.691-0.349
			c-2.719-1.812-4.81,2.998-6.901-5.855c0,0,0-3.205,1.674-4.461c0,0,0.302-1.51-0.162-2.184c0,0,0.649-3.159,3.902-4.368
			c0,0,1.208-3.346,6.691-1.952c0,0,2.51,0.094,2.975-2.881c0,0,1.021-1.858,4.646-1.951c0,0,1.302-0.186,2.417-1.395
			c0,0,1.858-0.186,2.974,0.465s1.395-1.301,1.951-1.858c0,0,0.953-2.208,3.532-0.396s2.788,5.158,4.251,6.273
			c1.465,1.115,1.047-0.487,0.488-1.324c-0.558-0.836-2.021-4.252-2.3-4.949c-0.278-0.696-0.278-3.624,2.37-3.624
			c0,0,1.394-0.906,4.112,0.906c2.718,1.812,5.507,2.579,6.761,2.37c0,0,1.256-0.559-0.696-0.837s-4.461-2.439-5.089-2.858
			c-0.627-0.418-0.209-2.091,0.836-2.509c1.047-0.418,2.858-5.297,5.229-5.646c0,0,1.115-0.14,1.742-0.558
			c0,0,0.279-0.767-0.697-0.627c0,0-0.696-1.882-0.627-3.625c0.07-1.743-2.091-6.134-3.764-6.134c0,0-0.558,0.348,0.139,1.254
			c0.697,0.906,2.789,4.043,1.952,8.016c0,0-0.14,0.906-1.324,1.255c0,0-0.976,3.694-3.903,4.251s-0.976,2.858-2.928,3.207
			c-1.951,0.349-2.857-1.115-4.81,1.324c0,0-1.324,3.068-2.648,1.185c-1.325-1.882,1.114-5.437,1.882-6.761
			c0.767-1.324,1.812-4.461,5.367-5.088c0,0,0.977,0.418,1.604-1.743c0.627-2.161,3.624-1.463,3.973-0.627
			c0.349,0.837,1.046,2.37,1.254,0.627c0,0-0.139-2.37-1.951-2.788c-1.812-0.418-2.439-3.207-1.882-4.81
			c0.558-1.603,2.3-1.812,5.786-0.767c0,0,1.742,1.604,2.996,1.604c1.256,0,0.279-0.976-0.348-1.255
			c-0.628-0.279-2.044-1.869-5.02-2.718c-1.463-0.418,0.628-3.207,2.858-1.604c0,0,3.206,1.673,5.995,0.906
			c0,0,3.275-0.558,4.182,1.952c0,0-0.209,0.279-1.464,0.279s-1.464,0.767-2.161,0.697c-0.696-0.07-0.209-0.766-2.787-1.812
			c-2.58-1.045-1.115,0.558-0.419,1.115c0.697,0.558,3.067,1.394,2.858,3.694s-2.858,4.112-2.858,8.504
			c0,4.391,0.628,7.946,1.534,7.946s0.139-0.697,0-2.649c-0.14-1.952-0.628-7.04,0.976-7.598c1.603-0.558,3.206-0.627,2.579-1.603
			c0,0-1.465-0.279-2.23,0c0,0-0.628-0.209,0.976-1.882c1.603-1.673,0.069-3.625,1.952-4.601c1.881-0.976,3.902,0.209,3.833,1.045
			s-1.812,0.349-2.23,2.23c-0.418,1.882-1.812,4.81,0.767,8.853c0,0,0.488,4.6,0.14,5.437c0,0,0.767,0.976,1.464-2.648
			c0.697-3.625-1.255-5.088-1.674-6.901c-0.418-1.812,0.419-4.879,1.534-4.879s2.021-0.907,4.461,3.276
			c2.439,4.182,2.858,4.391,2.788,7.807c-0.069,3.416,0.209,4.601,1.186,5.437c0.487,0.418-0.488,2.579-1.534,1.604
			c0,0-3.066-1.812-4.53-0.628c0,0-0.768-0.558,0.209-1.742c0,0,0.906-9.131-1.255-8.922s1.185,0.279,0.069,6.831
			c-1.114,6.552-4.739,8.504-6.273,8.434c-1.533-0.07-1.812,0.279-0.487-2.928c1.324-3.206,2.705-9.665,1.046-9.41
			c-0.906,0.14-0.697,0.627-0.697,2.091c0,1.463-0.349,6.691-2.788,8.713s-1.673-0.836-2.579-1.883
			c-0.906-1.045-2.092-4.46-6.273-4.112c0,0-0.418,1.115,0.906,1.185s4.461,2.021,4.391,4.321c-0.069,2.301-0.209,2.161-1.951,3.276
			c-1.742,1.114-3.625,2.928-4.321,5.507c-0.697,2.578-5.158,4.043-9.271,3.555c-4.113-0.488-2.161-2.928-2.301-4.601
			c-0.139-1.673-0.348-3.834-1.604-2.788c0,0,0.07,0.418,0.35,1.812c0.278,1.395-0.977,0.697-1.046,2.23s-0.558,3.275-3.067,1.604
			c-2.509-1.674-0.836-1.256-0.627-4.253s-2.51-3.973-1.951-2.579c0.557,1.395,0.975,1.533,0.278,3.695
			c-0.697,2.16,0.696,2.857-0.767,4.391c-1.464,1.533-4.392,3.066-6.691,3.764c-2.301,0.697-1.952,2.858-4.183,3.067
			s-1.115-2.579-3.067-2.718c0,0-1.185-0.141-0.487,1.045s2.649,1.951,1.464,3.346c0,0-1.464,1.464-4.392,1.186
			c0,0-0.905,1.254,1.952,0.836s4.391-1.533,6.9-4.182c0,0,2.23-1.395,5.367-2.23c3.137-0.837,3.625-2.51,6.064-2.789
			s4.043-0.557,6.9,0.697c0,0,2.23,0.418,4.531,0.279c0,0,0.836,0.348,0.836,2.021c0,1.672,2.997,2.718,3.834,3.346
			c0.836,0.627-0.07,4.111,0.558,4.391c0.627,0.279,1.185,0.349,1.185-1.882s0.768-2.858,2.857-3.206
			c2.092-0.349,5.717-1.533,7.807-0.977c0,0,1.324-0.906-1.045-1.394c-2.37-0.487-4.74,1.046-6.762,1.255s-5.925,1.812-6.552-2.719
			c-0.628-4.531,6.273-2.23,8.504-3.694c0,0,0.906-0.837-0.628-0.906c-1.533-0.069-3.555,0-4.042,0.558c0,0,0-0.348,1.115-2.16
			c1.114-1.812-0.21-2.44,1.812-3.555c2.021-1.115,3.974-2.301,5.229-2.44c1.254-0.14,4.182,0.976,4.252,3.276
			C174.964,46.487,175.312,54.016,173.779,56.664z M181.586,53.062c-1.673-0.929-1.673-3.531-1.673-5.669s-1.302-1.208-1.394,0.372
			c-0.094,1.58-0.373,4.368,0.371,4.926c0.743,0.558,0.559,0.743-0.371,1.858s-1.674,2.23-2.882,1.858c0,0,1.208-0.836,0.65-10.315
			c0,0,0.465-2.882,2.974-2.882c2.51,0,3.16,0.373,2.975,3.439c-0.186,3.067,0.279,4.554,0.836,5.483
			C183.631,53.062,183.259,53.992,181.586,53.062z M185.582,52.598c0,0-0.465,2.045-1.58-1.857c0,0-1.115-7.529,0.465-8.086
			c0,0,1.395-1.301,1.673-2.138c0.279-0.837-0.186-0.744-1.3,0.186c-1.116,0.93-1.209,2.509-3.439,0.651
			c0,0-2.139-0.838-3.439-0.094c0,0-0.743,1.209-1.58,1.209c0,0-1.115-1.303,0.93-2.23c2.045-0.93,2.416-1.115,3.067-2.695
			c0.65-1.58,5.948-0.187,6.691,2.137s2.138,4.926,0.929,7.528C186.791,49.811,185.49,49.438,185.582,52.598z M189.207,53.807
			c0,0-3.067,1.021-1.209-2.881c1.859-3.904,2.324-0.65,1.952-9.016c0,0-0.558-2.695-1.208-3.253s-0.093-2.044,0.743-2.138
			c0.837-0.092-0.187-3.159-1.487-3.996c0,0-0.742-5.855-0.278-6.134c0,0,3.903,3.439,5.019,17.101
			C192.738,43.49,193.203,52.691,189.207,53.807z"/>
		<path fill="#FFFFFF" d="M155.006,14.866c-1.673,3.532-3.066,1.022-4.926,1.022s-1.395,1.208-0.93,1.115
			c0.465-0.093,1.487,0.093,1.487,0.093c0.418-0.081,1.58,0.557,1.58,0.557c1.115,0.187,1.487,0.93,2.23,0.372
			s1.58-0.65,1.487-2.417C155.842,13.843,155.006,14.866,155.006,14.866z"/>
	</g>
	<g>
		<path fill="#AE382D" d="M28.773,32.976h-8V54.31H10.106V32.976h-8v-5.333h26.667V32.976z"/>
		<path fill="#AE382D" d="M60.667,54.31H50V43.643h-5.333V54.31H34V27.643h10.667V38.31H50V27.643h10.667V54.31z"/>
		<path fill="#AE382D" d="M76.667,54.31H66V27.643h10.667V54.31z"/>
		<path fill="#AE382D" d="M108.667,54.31H98V32.976h-5.333V54.31H82V27.643h24v2.667h2.667V54.31z"/>
		<path fill="#AE382D" d="M140.667,54.31H130V43.643h-5.333V54.31H114V27.643h10.667V38.31H130V27.643h10.667V38.31H138v5.333h2.667
			V54.31z"/>
		<path fill="#AE382D" d="M188.773,54.31h-24v-2.667h-2.667V30.31h2.667v-2.667h24v5.333h-16v16h5.333v-5.333h-2.666V38.31h13.333
			V54.31z"/>
		<path fill="#AE382D" d="M220.667,54.31h-24v-2.667H194V30.31h2.667v-2.667h24v5.333h-16v5.333h8v5.333h-8v5.333h16V54.31z"/>
		<path fill="#AE382D" d="M252.667,54.31h-24v-2.667H226V30.31h2.667v-2.667h24v5.333h-16v5.333h8v5.333h-8v5.333h16V54.31z"/>
		<path fill="#AE382D" d="M284.667,54.31H274V43.643h-5.333V54.31H258V27.643h10.667V38.31H274V27.643h10.667V38.31H282v5.333h2.667
			V54.31z"/>
	</g>
	<g>
		<path fill="#FFFFFF" d="M26.773,28.809h-8v21.333H8.106V28.809h-8v-5.333h26.667V28.809z"/>
		<path fill="#FFFFFF" d="M58.667,50.143H48V39.476h-5.333v10.667H32V23.476h10.667v10.667H48V23.476h10.667V50.143z"/>
		<path fill="#FFFFFF" d="M74.667,50.143H64V23.476h10.667V50.143z"/>
		<path fill="#FFFFFF" d="M106.667,50.143H96V28.809h-5.333v21.333H80V23.476h24v2.667h2.667V50.143z"/>
		<path fill="#FFFFFF" d="M138.667,50.143H128V39.476h-5.333v10.667H112V23.476h10.667v10.667H128V23.476h10.667v10.667H136v5.333
			h2.667V50.143z"/>
		<path fill="#FFFFFF" d="M186.773,50.143h-24v-2.667h-2.667V26.143h2.667v-2.667h24v5.333h-16v16h5.333v-5.333h-2.666v-5.333
			h13.333V50.143z"/>
		<path fill="#FFFFFF" d="M218.667,50.143h-24v-2.667H192V26.143h2.667v-2.667h24v5.333h-16v5.333h8v5.333h-8v5.333h16V50.143z"/>
		<path fill="#FFFFFF" d="M250.667,50.143h-24v-2.667H224V26.143h2.667v-2.667h24v5.333h-16v5.333h8v5.333h-8v5.333h16V50.143z"/>
		<path fill="#FFFFFF" d="M282.667,50.143H272V39.476h-5.333v10.667H256V23.476h10.667v10.667H272V23.476h10.667v10.667H280v5.333
			h2.667V50.143z"/>
	</g>
</g>
</svg>
